<svg width="33" height="30" viewBox="0 0 33 30" fill="none" xmlns="http://www.w3.org/2000/svg">
<path d="M15.5642 23.6841C21.1654 23.6841 25.4948 19.4427 25.4948 14.2105C25.4948 9.30881 21.4276 6.31584 18.7335 6.31584C14.9822 6.31584 11.9754 8.95443 11.547 12.8715C11.4676 13.5969 10.8942 14.2052 10.1665 14.2C8.95674 14.1913 7.19803 14.181 6.08472 14.1848C5.60542 14.1865 5.20913 13.7966 5.23283 13.3166C5.40085 9.91936 6.53411 6.74287 8.69518 4.3028C11.0965 1.59145 14.5935 0 18.7335 0C25.6894 0 32.2561 6.33492 32.2561 14.2105C32.2561 22.9308 25.0476 30 15.7122 30C9.05453 30 2.34922 25.639 0.00815907 19.5422C-0.000525754 19.5196 -0.00192936 19.496 0.0023034 19.4715C0.0334459 19.2911 0.095358 19.1263 0.156327 18.964C0.244974 18.7281 0.331625 18.4975 0.318971 18.2316L0.278507 17.3824C0.258571 16.9634 0.49473 16.5738 0.876731 16.3956L1.21515 16.2377C1.60104 16.0576 1.87533 15.703 1.95126 15.2862C2.06469 14.6633 2.61021 14.2105 3.24694 14.2105C4.2412 14.2105 5.10587 14.8732 5.43067 15.8155C6.99393 20.3508 9.4791 23.6841 15.5642 23.6841Z" fill="#FB6068"/>
</svg>
