<svg width="405" height="405" viewBox="0 0 405 405" fill="none" xmlns="http://www.w3.org/2000/svg">
<path d="M395.057 197.992L379.225 189.368C372.274 155.259 355.67 124.753 332.373 100.684C319.244 87.0401 304.056 75.5846 287.194 66.5746V56.5349C287.194 51.2576 277.154 46.4952 260.936 43.1486C245.748 39.9307 225.154 38 202.5 38C194.52 38 186.797 38.2574 179.331 38.6436C143.806 40.8317 117.806 48.0397 117.806 56.4061V66.4459C106.479 72.4954 95.9246 79.7035 86.1424 87.9412C55.8942 113.684 34.1416 149.08 25.7752 189.368L9.94333 197.992C2.73531 201.853 -1.12612 209.962 0.289739 217.942L14.7057 298.904C16.1216 307.142 22.8148 313.32 31.0524 314.35L55.2506 317.31C68.3795 331.468 84.984 342.538 104.162 350.647C129.905 361.588 160.153 367.38 192.718 368.281C195.935 368.41 199.282 368.41 202.5 368.41C227.342 368.41 251.025 365.707 272.649 360.172C300.967 352.835 325.68 340.479 344.343 322.716C346.531 320.657 348.72 318.469 350.779 316.152L373.561 313.963C382.057 313.191 388.878 306.884 390.423 298.389L404.71 217.814C406.126 209.962 402.265 201.853 395.057 197.992Z" fill="url(#paint0_linear_74_599)"/>
<path d="M202.501 324.26C159.51 324.26 124.242 315.379 100.559 298.517C77.5192 282.171 66.3213 258.359 66.3213 225.794C66.3213 150.625 127.46 89.4854 202.629 89.4854C277.799 89.4854 338.938 150.625 338.938 225.794C338.938 258.359 327.74 282.042 304.7 298.517C280.759 315.379 245.491 324.26 202.501 324.26Z" fill="white"/>
<path d="M202.5 292.855C175.728 292.855 150.886 277.152 139.173 252.954L160.797 242.657C168.648 258.874 184.609 269.043 202.5 269.043C220.392 269.043 236.481 259.003 244.204 242.657L265.827 252.954C254.114 277.152 229.273 292.855 202.5 292.855Z" fill="black"/>
<defs>
<linearGradient id="paint0_linear_74_599" x1="104.267" y1="340.28" x2="325.595" y2="99.3273" gradientUnits="userSpaceOnUse">
<stop stop-color="#E74694"/>
<stop offset="0.572917" stop-color="#6C2BD9"/>
<stop offset="1" stop-color="#00F0FF"/>
</linearGradient>
</defs>
</svg>
