<svg width="405" height="405" viewBox="0 0 405 405" fill="none" xmlns="http://www.w3.org/2000/svg">
<path d="M229.544 27H175.036C128.623 27.0548 84.128 45.5121 51.3129 78.324C18.4981 111.136 0.0438 155.623 0 202.02C0.0548 248.412 18.5138 292.887 51.3276 325.69C84.141 358.493 128.63 376.944 175.036 377H229.75C276.162 376.956 320.663 358.509 353.485 325.703C386.308 292.9 404.773 248.419 404.827 202.02C404.783 155.58 386.296 111.057 353.428 78.237C320.558 45.4181 276 26.989 229.544 27ZM21.6619 202.02C21.6619 161.39 37.8078 122.422 66.548 93.692C95.288 64.961 134.267 48.8208 174.911 48.8208C183.474 48.8176 192.021 49.523 200.468 50.9315C236.219 56.843 268.698 75.284 292.089 102.953C315.477 130.622 328.251 165.712 328.12 201.937C328.077 225.2 319.81 247.699 304.782 265.458C289.753 283.217 268.927 295.096 245.986 298.992C261.269 287.84 273.698 273.234 282.262 256.367C290.829 239.502 295.287 220.853 295.275 201.937C295.321 175.253 286.474 149.312 270.131 128.213C253.787 107.114 230.878 92.057 205.022 85.423C195.188 82.882 185.07 81.602 174.911 81.614C143.043 81.712 112.511 94.429 89.999 116.98C67.487 139.531 54.83 170.079 54.797 201.937C54.716 231.503 62.15 260.602 76.4 286.507C90.651 312.414 111.251 334.277 136.268 350.045C103.526 341.451 74.545 322.273 53.839 295.5C33.1335 268.728 21.864 235.862 21.7864 202.02H21.6619ZM202.206 107.492C222.718 113.397 240.749 125.813 253.579 142.867C266.409 159.92 273.338 180.683 273.322 202.02C273.329 223.352 266.395 244.104 253.567 261.15C240.737 278.194 222.711 290.604 202.206 296.508C181.703 290.604 163.676 278.194 150.847 261.15C138.018 244.104 131.084 223.352 131.091 202.02C131.075 180.683 138.005 159.92 150.835 142.867C163.664 125.813 181.696 113.397 202.206 107.492ZM229.544 355.139H228.922C220.595 355.093 212.285 354.385 204.07 353.026C169.205 347.245 137.428 329.54 114.174 302.933C90.921 276.326 77.633 242.471 76.583 207.155C76.583 205.415 76.583 203.718 76.583 202.02C76.609 178.754 84.869 156.246 99.902 138.483C114.934 120.72 135.769 108.848 158.717 104.967C143.428 116.116 130.99 130.717 122.418 147.583C113.845 164.449 109.38 183.103 109.387 202.02C109.35 228.7 118.201 254.629 134.543 275.721C150.886 296.811 173.79 311.862 199.639 318.494C209.47 321.056 219.591 322.336 229.75 322.303C261.654 322.27 292.244 309.589 314.809 287.04C337.372 264.491 350.069 233.916 350.113 202.02C350.206 172.454 342.778 143.349 328.525 117.441C314.275 91.533 293.667 69.673 268.643 53.914C301.377 62.519 330.342 81.716 351.014 108.509C371.687 135.302 382.905 168.184 382.917 202.02C382.906 222.143 378.93 242.067 371.216 260.651C363.503 279.237 352.201 296.121 337.958 310.34C323.715 324.559 306.81 335.833 288.207 343.519C269.607 351.206 249.672 355.154 229.544 355.139Z" fill="#FC5200"/>
</svg>
