<svg width="160" height="151" viewBox="0 0 160 151" fill="none" xmlns="http://www.w3.org/2000/svg">
<g clip-path="url(#clip0_7_2)">
<path d="M139.2 70.8946H20.9385C17.925 70.8946 15.4657 68.4267 15.4657 65.4219V57.0742C15.4657 47.6268 23.1293 39.9632 32.5767 39.9632H127.432C136.879 39.9632 144.543 47.6268 144.543 57.0742V65.4219C144.673 68.4353 142.205 70.8946 139.2 70.8946Z" fill="currentColor"/>
<path d="M114.287 30.9314H45.8516C42.8381 30.9314 40.2403 28.4635 40.2403 25.3201C40.2403 11.3611 51.6014 0 65.5604 0H94.5781C108.537 0 119.898 11.3611 119.898 25.3201C119.898 28.4721 117.43 30.9314 114.287 30.9314Z" fill="currentColor"/>
<path d="M144.673 79.935H15.4657C6.97949 79.935 0 86.9145 0 95.4007C0 103.887 6.97949 110.866 15.4657 110.866H61.3173C62.9626 102.103 70.6262 95.4007 79.9351 95.4007C89.2439 95.4007 97.046 102.103 98.6827 110.866H144.534C153.02 110.866 160 103.887 160 95.4007C160 86.9145 153.159 79.935 144.673 79.935Z" fill="currentColor"/>
<path d="M139.062 119.898H98.9598V150.83H129.069C137.555 150.83 144.534 143.85 144.534 135.364V125.51C144.673 122.496 142.205 119.898 139.062 119.898Z" fill="currentColor"/>
<path d="M20.9385 119.898C17.925 119.898 15.3272 122.366 15.3272 125.51V135.364C15.3272 143.85 22.3067 150.83 30.7929 150.83H60.9017V119.898C61.0402 119.898 20.9385 119.898 20.9385 119.898Z" fill="currentColor"/>
</g>
<defs>
<clipPath id="clip0_7_2">
<rect width="160" height="150.83" fill="white"/>
</clipPath>
</defs>
</svg>
